<svg aria-hidden="true" xmlns="http://www.w3.org/2000/svg" viewBox="60 80 200 160" fill="currentColor"><path d="M0 0 C4.724 3.699 9.207 7.592 13.234 12.043 C13.234 12.703 13.234 13.363 13.234 14.043 C13.894 14.043 14.554 14.043 15.234 14.043 C21.031 20.734 24.558 27.727 25.672 36.48 C24.666 44.669 21.192 51.213 15.297 56.918 C13.234 58.043 13.234 58.043 10.812 57.844 C7.743 56.89 6.858 55.877 4.922 53.355 C-1.068 46.108 -8.812 40.531 -18.016 38.23 C-20.607 38.054 -22.305 38.34 -24.766 39.043 C-26.766 38.043 -26.766 38.043 -27.766 35.043 C-29.832 34.094 -29.832 34.094 -32.328 33.355 C-32.741 33.23 -32.741 33.23 -34.832 32.594 C-35.47 32.412 -36.108 32.23 -36.766 32.043 C-37.213 32.742 -37.66 33.44 -38.121 34.16 C-38.423 34.615 -38.423 34.615 -39.953 36.918 C-40.545 37.823 -41.136 38.728 -41.746 39.66 C-44.024 42.347 -45.347 43.26 -48.766 44.043 C-51.441 43.582 -51.441 43.582 -54.078 42.668 C-54.52 42.52 -54.52 42.52 -56.754 41.77 C-57.418 41.53 -58.082 41.29 -58.766 41.043 C-58.766 41.703 -58.766 42.363 -58.766 43.043 C-57.817 43.187 -56.868 43.332 -55.891 43.48 C-54.859 43.996 -53.828 44.512 -52.766 45.043 C-52.273 46.863 -52.273 46.863 -52.016 49.105 C-51.306 53.751 -49.623 55.413 -46.016 58.355 C-40.328 63.021 -37.385 68.219 -34.766 75.043 C-34.766 75.703 -34.766 76.363 -34.766 77.043 C-34.097 76.91 -33.428 76.777 -32.738 76.641 C-23.766 74.991 -14.861 74.452 -5.766 74.043 C-5.106 75.363 -4.446 76.683 -3.766 78.043 C-14.488 84.111 -24.655 86.313 -36.766 88.043 C-37.426 95.303 -38.086 102.563 -38.766 110.043 C-41.742 111.035 -43.493 111.089 -46.578 110.98 C-50.775 110.932 -53.802 111.609 -57.766 113.043 C-63.754 114.391 -67.822 113.917 -73.512 111.75 C-78.646 110.139 -83.956 110.895 -89.203 111.605 C-92.766 112.043 -92.766 112.043 -94.766 111.043 C-94.766 110.383 -94.766 109.723 -94.766 109.043 C-87.894 107.224 -80.834 105.583 -73.957 108.051 C-70.278 109.194 -67.233 109.24 -63.391 109.168 C-62.145 109.15 -60.9 109.132 -59.617 109.113 C-59.147 109.102 -59.147 109.102 -56.766 109.043 C-56.601 108.383 -56.601 108.383 -55.766 105.043 C-54.776 105.043 -53.786 105.043 -52.766 105.043 C-52.766 105.703 -52.766 106.363 -52.766 107.043 C-50.126 107.043 -47.486 107.043 -44.766 107.043 C-44.766 100.773 -44.766 94.503 -44.766 88.043 C-45.756 88.373 -46.746 88.703 -47.766 89.043 C-51.532 89.275 -55.305 89.228 -59.078 89.23 C-60.111 89.243 -61.144 89.255 -62.209 89.268 C-67.453 89.278 -71.869 89.175 -76.766 87.043 C-76.516 85.168 -76.516 85.168 -75.766 83.043 C-72.366 80.755 -69.033 80.659 -65.016 80.418 C-64.43 80.381 -64.43 80.381 -61.469 80.191 C-60.577 80.142 -59.685 80.093 -58.766 80.043 C-57.445 71.751 -60.06 67.666 -64.852 61.055 C-67.732 56.522 -68.411 52.33 -68.766 47.043 C-68.846 46.129 -68.925 45.215 -69.008 44.273 C-69.202 40.381 -69.185 37.827 -67.328 34.355 C-63.392 32.34 -59.981 33.074 -55.766 34.043 C-54.858 34.414 -53.951 34.785 -53.016 35.168 C-49.968 36.353 -48.818 36.278 -45.766 35.043 C-41.97 32.515 -39.208 30.003 -38.18 25.449 C-37.924 18.448 -39.41 11.813 -44.156 6.48 C-47.336 3.668 -50.92 1.783 -54.766 0.043 C-54.625 -1.758 -54.625 -1.758 -53.766 -3.957 C-51.219 -5.625 -51.219 -5.625 -48.016 -7.145 C-46.969 -7.654 -45.922 -8.163 -44.844 -8.688 C-29.799 -14.893 -12.646 -8.949 0 0 Z M-32.766 3.043 C-32.479 3.891 -32.193 4.739 -31.898 5.613 C-30.768 9.036 -29.696 12.471 -28.641 15.918 C-28.287 17.07 -27.934 18.223 -27.57 19.41 C-27.305 20.279 -27.039 21.148 -26.766 22.043 C-18.902 19.86 -11.349 17.05 -3.766 14.043 C-6.167 8.886 -9.497 6.352 -14.766 4.293 C-20.664 2.447 -26.653 2.788 -32.766 3.043 Z M-52.766 64.043 C-52.106 68.663 -51.446 73.283 -50.766 78.043 C-48.126 78.043 -45.486 78.043 -42.766 78.043 C-43.304 73.603 -44.841 69.458 -47.766 66.043 C-48.591 65.713 -48.591 65.713 -52.766 64.043 Z " fill="currentColor" transform="translate(179.765625,104.95703125)"/><path d="M0 0 C0.887 0.412 1.774 0.825 2.688 1.25 C3.438 4.5 3.438 4.5 3.688 8.25 C2.062 10.688 2.062 10.688 -0.312 12.25 C-3.219 12.746 -4.615 12.683 -7.125 11.125 C-8.911 8.305 -8.846 6.515 -8.312 3.25 C-5.438 -0.132 -4.413 -0.999 0 0 Z " fill="currentColor" transform="translate(122.3125,123.75)"/><path d="M0 0 C4.748 1.79 8.529 1.396 13.438 0.438 C14.448 0.252 15.459 0.066 16.5 -0.125 C17.139 -0.269 17.779 -0.414 18.438 -0.562 C18.602 -0.067 18.602 -0.067 19.438 2.438 C11.476 5.606 5.963 5.295 -2.273 3.223 C-8.551 1.724 -13.409 1.951 -19.5 4 C-24.749 5.764 -29.17 5.39 -34.562 4.438 C-34.562 3.778 -34.562 3.118 -34.562 2.438 C-33.621 2.316 -32.68 2.195 -31.711 2.07 C-31.088 1.987 -31.088 1.987 -27.938 1.562 C-26.708 1.4 -25.478 1.238 -24.211 1.07 C-5.642 -2.15 -5.642 -2.15 0 0 Z " fill="currentColor" transform="translate(177.5625,213.5625)"/></svg>