<svg xmlns="http://www.w3.org/2000/svg" viewBox="0 0 100 100" fill="currentColor" aria-hidden="true"><path d="M50 14.8L46.77 15.97L45.5 17.15L44.59 18.32L43.86 19.49L43.25 20.67L42.73 21.84L42.29 23.01L41.91 24.19L41.57 25.36L41.28 26.53L41.02 27.71L40.79 28.88L40.59 30.05L40.42 31.23L40.27 32.4L40.14 33.57L40.03 34.75L39.94 35.92L39.86 37.09L39.79 38.27L39.74 39.44L39.7 40.61L39.67 41.79L39.64 42.96L39.62 44.13L39.61 45.31L39.61 46.48L39.6 47.65L39.6 48.83L39.6 50L39.6 51.17L39.6 52.35L39.61 53.52L39.61 54.69L39.62 55.87L39.64 57.04L39.67 58.21L39.7 59.39L39.74 60.56L39.79 61.73L39.86 62.91L39.94 64.08L40.03 65.25L40.14 66.43L40.27 67.6L40.42 68.77L40.59 69.95L40.79 71.12L41.02 72.29L41.28 73.47L41.57 74.64L41.91 75.81L42.29 76.99L42.73 78.16L43.25 79.33L43.86 80.51L44.59 81.68L45.5 82.85L46.77 84.03L50 85.2L50 85.2L53.23 84.03L54.5 82.85L55.41 81.68L56.14 80.51L56.75 79.33L57.27 78.16L57.71 76.99L58.09 75.81L58.43 74.64L58.72 73.47L58.98 72.29L59.21 71.12L59.41 69.95L59.58 68.77L59.73 67.6L59.86 66.43L59.97 65.25L60.06 64.08L60.14 62.91L60.21 61.73L60.26 60.56L60.3 59.39L60.33 58.21L60.36 57.04L60.38 55.87L60.39 54.69L60.39 53.52L60.4 52.35L60.4 51.17L60.4 50L60.4 48.83L60.4 47.65L60.39 46.48L60.39 45.31L60.38 44.13L60.36 42.96L60.33 41.79L60.3 40.61L60.26 39.44L60.21 38.27L60.14 37.09L60.06 35.92L59.97 34.75L59.86 33.57L59.73 32.4L59.58 31.23L59.41 30.05L59.21 28.88L58.98 27.71L58.72 26.53L58.43 25.36L58.09 24.19L57.71 23.01L57.27 21.84L56.75 20.67L56.14 19.49L55.41 18.32L54.5 17.15L53.23 15.97L50 14.8Z"/></svg>