<svg xmlns="http://www.w3.org/2000/svg" viewBox="0 0 100 100" fill="currentColor" aria-hidden="true"><path d="M16 75.6L17.7 74.09L19.4 73.52L21.1 73.12L22.8 72.81L24.5 72.56L26.2 72.36L27.9 72.19L29.6 72.06L31.3 71.95L33 71.86L34.7 71.79L36.4 71.73L38.1 71.69L39.8 71.65L41.5 71.63L43.2 71.62L44.9 71.61L46.6 71.6L48.3 71.6L50 71.6L51.7 71.6L53.4 71.6L55.1 71.61L56.8 71.62L58.5 71.63L60.2 71.65L61.9 71.69L63.6 71.73L65.3 71.79L67 71.86L68.7 71.95L70.4 72.06L72.1 72.19L73.8 72.36L75.5 72.56L77.2 72.81L78.9 73.12L80.6 73.52L82.3 74.09L84 75.6L84 75.6L82.3 77.11L80.6 77.68L78.9 78.08L77.2 78.39L75.5 78.64L73.8 78.84L72.1 79.01L70.4 79.14L68.7 79.25L67 79.34L65.3 79.41L63.6 79.47L61.9 79.51L60.2 79.55L58.5 79.57L56.8 79.58L55.1 79.59L53.4 79.6L51.7 79.6L50 79.6L48.3 79.6L46.6 79.6L44.9 79.59L43.2 79.58L41.5 79.57L39.8 79.55L38.1 79.51L36.4 79.47L34.7 79.41L33 79.34L31.3 79.25L29.6 79.14L27.9 79.01L26.2 78.84L24.5 78.64L22.8 78.39L21.1 78.08L19.4 77.68L17.7 77.11L16 75.6Z"/><path d="M43.6 71.6L54 14L57.16 16.87L60.27 19.73L63.26 22.6L66.1 25.47L68.76 28.33L71.2 31.2L73.42 34.07L75.44 36.93L77.26 39.8L78.93 42.67L80.49 45.53L82 48.4L78.16 51.09L74.32 53.75L70.48 56.33L66.64 58.82L62.8 61.2L58.96 63.46L55.12 65.61L51.28 67.67L47.44 69.65Z"/></svg>