<svg xmlns="http://www.w3.org/2000/svg" viewBox="0 0 100 100" fill="currentColor" aria-hidden="true"><g transform="rotate(-45 50 50)"><path d="M12 42L13.95 34.92L15.9 32.12L17.85 30.06L19.79 28.41L21.74 27.02L23.69 25.84L25.64 24.81L27.59 23.91L29.54 23.12L31.49 22.44L33.44 21.84L35.38 21.32L37.33 20.88L39.28 20.51L41.23 20.2L43.18 19.96L45.13 19.78L47.08 19.67L49.03 19.61L50.97 19.61L52.92 19.67L54.87 19.78L56.82 19.96L58.77 20.2L60.72 20.51L62.67 20.88L64.62 21.32L66.56 21.84L68.51 22.44L70.46 23.12L72.41 23.91L74.36 24.81L76.31 25.84L78.26 27.02L80.21 28.41L82.15 30.06L84.1 32.12L86.05 34.92L88 42L88 42L86.05 41.64L84.1 41.28L82.15 40.93L80.21 40.58L78.26 40.24L76.31 39.92L74.36 39.61L72.41 39.31L70.46 39.03L68.51 38.77L66.56 38.53L64.62 38.31L62.67 38.12L60.72 37.95L58.77 37.81L56.82 37.7L54.87 37.61L52.92 37.55L50.97 37.52L49.03 37.52L47.08 37.55L45.13 37.61L43.18 37.7L41.23 37.81L39.28 37.95L37.33 38.12L35.38 38.31L33.44 38.53L31.49 38.77L29.54 39.03L27.59 39.31L25.64 39.61L23.69 39.92L21.74 40.24L19.79 40.58L17.85 40.93L15.9 41.28L13.95 41.64L12 42Z" fill="currentColor"/><line x1="15.9" y1="32.12" x2="38" y2="80.4" stroke="currentColor" stroke-width="1.6" stroke-linecap="round"/><line x1="84.1" y1="32.12" x2="62" y2="80.4" stroke="currentColor" stroke-width="1.6" stroke-linecap="round"/><line x1="37.33" y1="20.88" x2="44" y2="80.4" stroke="currentColor" stroke-width="1.2" stroke-linecap="round"/><line x1="62.67" y1="20.88" x2="56" y2="80.4" stroke="currentColor" stroke-width="1.2" stroke-linecap="round"/><rect x="38" y="78.64" width="24" height="3.52" rx="1.44" ry="1.44" fill="currentColor"/></g></svg>