<svg xmlns="http://www.w3.org/2000/svg" viewBox="0 0 100 100" fill="currentColor" aria-hidden="true"><path d="M12 29.2L14.53 28.46L17.07 27.75L19.6 27.05L22.13 26.38L24.67 25.73L27.2 25.11L29.73 24.52L32.27 23.95L34.8 23.42L37.33 22.92L39.87 22.46L42.4 22.04L44.93 21.68L47.47 21.38L50 21.2L52.53 21.38L55.07 21.68L57.6 22.04L60.13 22.46L62.67 22.92L65.2 23.42L67.73 23.95L70.27 24.52L72.8 25.11L75.33 25.73L77.87 26.38L80.4 27.05L82.93 27.75L85.47 28.46L88 29.2L88 29.2L85.47 30.16L82.93 31.09L80.4 31.99L77.87 32.86L75.33 33.7L72.8 34.51L70.27 35.29L67.73 36.02L65.2 36.72L62.67 37.37L60.13 37.97L57.6 38.51L55.07 38.98L52.53 39.37L50 39.6L47.47 39.37L44.93 38.98L42.4 38.51L39.87 37.97L37.33 37.37L34.8 36.72L32.27 36.02L29.73 35.29L27.2 34.51L24.67 33.7L22.13 32.86L19.6 31.99L17.07 31.09L14.53 30.16L12 29.2ZM40 33.6L40.04 33.29L40.16 33L40.35 32.75L40.6 32.56L40.89 32.44L41.2 32.4L58.8 32.4L59.11 32.44L59.4 32.56L59.65 32.75L59.84 33L59.96 33.29L60 33.6L60 33.6L59.96 33.91L59.84 34.2L59.65 34.45L59.4 34.64L59.11 34.76L58.8 34.8L41.2 34.8L40.89 34.76L40.6 34.64L40.35 34.45L40.16 34.2L40.04 33.91L40 33.6ZM41.6 29.2L43.2 29.2L43.2 32.4L41.6 32.4ZM56.8 29.2L58.4 29.2L58.4 32.4L56.8 32.4Z" fill-rule="evenodd"/><path d="M28 64.4L29.47 63.02L30.93 62.51L32.4 62.16L33.87 61.91L35.33 61.72L36.8 61.57L38.27 61.45L39.73 61.37L41.2 61.3L42.67 61.26L44.13 61.23L45.6 61.21L47.07 61.2L48.53 61.2L50 61.2L51.47 61.2L52.93 61.2L54.4 61.21L55.87 61.23L57.33 61.26L58.8 61.3L60.27 61.37L61.73 61.45L63.2 61.57L64.67 61.72L66.13 61.91L67.6 62.16L69.07 62.51L70.53 63.02L72 64.4L72 64.4L70.53 65.78L69.07 66.29L67.6 66.64L66.13 66.89L64.67 67.08L63.2 67.23L61.73 67.35L60.27 67.43L58.8 67.5L57.33 67.54L55.87 67.57L54.4 67.59L52.93 67.6L51.47 67.6L50 67.6L48.53 67.6L47.07 67.6L45.6 67.59L44.13 67.57L42.67 67.54L41.2 67.5L39.73 67.43L38.27 67.35L36.8 67.23L35.33 67.08L33.87 66.89L32.4 66.64L30.93 66.29L29.47 65.78L28 64.4Z"/><path d="M48.2 67.6L51.8 67.6L51.8 82L48.2 82Z"/><path d="M34 82L35.33 81.04L36.67 80.7L38 80.48L39.33 80.32L40.67 80.21L42 80.13L43.33 80.07L44.67 80.04L46 80.02L47.33 80L48.67 80L50 80L51.33 80L52.67 80L54 80.02L55.33 80.04L56.67 80.07L58 80.13L59.33 80.21L60.67 80.32L62 80.48L63.33 80.7L64.67 81.04L66 82L66 82L64.67 82.96L63.33 83.3L62 83.52L60.67 83.68L59.33 83.79L58 83.87L56.67 83.93L55.33 83.96L54 83.98L52.67 84L51.33 84L50 84L48.67 84L47.33 84L46 83.98L44.67 83.96L43.33 83.93L42 83.87L40.67 83.79L39.33 83.68L38 83.52L36.67 83.3L35.33 82.96L34 82Z"/></svg>