<?xml version="1.0" encoding="UTF-8"?>
<!-- Generator: visioncortex VTracer 0.6.12 -->
<svg version="1.1" xmlns="http://www.w3.org/2000/svg" width="374" height="282">
<path d="M0 0 C0.165 0.33 0.165 0.33 1 2 C0.498 1.952 0.498 1.952 -2.043 1.711 C-16.224 0.503 -30.805 0.896 -42.375 10.25 C-47.464 15.102 -50.149 19.848 -50.5 26.938 C-50.071 35.986 -45.249 43.663 -39 50 C-34.868 53.353 -30.529 56.228 -26 59 C-24.9 59.681 -23.801 60.361 -22.668 61.062 C9.371 79.908 47.83 82.157 84 83 C84 83.66 84 84.32 84 85 C80.751 85.485 77.501 85.962 74.25 86.438 C73.349 86.572 72.448 86.707 71.52 86.846 C17.047 94.765 -43.141 84.73 -89 53 C-93.017 49.965 -96.796 46.671 -100.536 43.304 C-101.894 42.095 -103.285 40.924 -104.68 39.758 C-111.534 33.928 -116.74 27.24 -122 20 C-116.172 6.829 -96.683 -1.323 -83.938 -6.277 C-58.488 -15.77 -22.716 -17.565 0 0 Z " fill="#312D24" transform="translate(145,173)"/>
<path d="M0 0 C1.719 1.583 3.41 3.196 5.066 4.844 C9.338 8.538 14.392 8.048 19.832 8.391 C22.293 8.77 22.293 8.77 24.293 10.77 C24.305 13.195 24.305 13.195 23.98 16.082 C23.881 17.027 23.782 17.972 23.68 18.945 C23.318 21.583 22.848 24.166 22.293 26.77 C22.733 26.933 22.733 26.933 24.961 27.758 C26.122 28.195 27.284 28.632 28.48 29.082 C29.629 29.511 30.778 29.941 31.961 30.383 C35.939 32.038 39.238 33.715 42.293 36.77 C42.62 39.841 42.774 41.92 41.23 44.645 C39.293 45.77 39.293 45.77 36.09 45.75 C32.327 45.769 29.251 46.322 25.605 47.207 C20.952 48.278 16.561 48.97 11.793 49.207 C6.858 49.521 4.238 50.67 0.293 53.77 C-3.411 55.251 -5.676 55.77 -9.707 55.77 C-12.027 79.925 -6.713 99.417 8.23 119.02 C19.545 134.275 24.935 150.785 23.293 169.77 C22.033 177.631 18.772 184.66 15.293 191.77 C12.323 191.77 9.353 191.77 6.293 191.77 C6.57 191.079 6.847 190.388 7.133 189.676 C8.383 186.544 9.626 183.41 10.855 180.27 C11.29 179.166 11.724 178.063 12.172 176.926 C17.227 162.694 14.412 146.81 8.82 133.18 C5.813 126.86 2.281 121.105 -1.645 115.332 C-10.34 102.534 -16.261 89.395 -21.676 74.931 C-25.341 65.246 -29.746 56.252 -35.707 47.77 C-34.841 48.1 -33.975 48.43 -33.082 48.77 C-26.056 50.763 -17.118 51.192 -10.332 48.27 C-9.466 47.775 -8.6 47.28 -7.707 46.77 C-9.721 43.748 -11.34 42.163 -14.707 40.77 C-13.544 38.021 -12.06 35.903 -10.145 33.645 C-7.707 30.77 -7.707 30.77 -6.707 28.77 C-7.676 29.285 -8.646 29.801 -9.645 30.332 C-14.127 32.241 -18.05 32.063 -22.707 30.77 C-26.155 28.642 -28.413 26.651 -29.707 22.77 C-29.832 20.02 -29.832 20.02 -29.707 17.77 C-37.756 19.412 -45.146 22.639 -52.707 25.77 C-55.849 41.685 -54.356 56.107 -51.145 71.895 C-47.64 89.39 -46.511 107.479 -51.707 124.77 C-51.296 125.006 -51.296 125.006 -49.215 126.203 C-33.989 135.223 -21.698 146.763 -13.707 162.77 C-13.707 163.43 -13.707 164.09 -13.707 164.77 C-14.367 164.77 -15.027 164.77 -15.707 164.77 C-16.67 163.706 -17.576 162.59 -18.457 161.457 C-27.229 151.196 -38.834 143.932 -50.707 137.77 C-51.584 137.311 -52.46 136.852 -53.363 136.379 C-85.207 120.85 -122.374 119.709 -155.67 131.048 C-166.845 135.006 -176.625 140.289 -186.501 146.858 C-187.267 147.364 -188.032 147.869 -188.82 148.391 C-189.499 148.849 -190.177 149.307 -190.876 149.779 C-192.707 150.77 -192.707 150.77 -195.707 150.77 C-178.173 131.564 -156.013 120.134 -130.707 114.77 C-129.615 114.525 -128.523 114.28 -127.398 114.027 C-103.643 109.517 -80.171 113.996 -57.707 121.77 C-57.563 120.573 -57.418 119.377 -57.27 118.145 C-56.966 115.685 -56.616 113.275 -56.168 110.836 C-54.031 96.623 -56.217 82.876 -58.917 68.909 C-61.189 56.504 -61.225 44.336 -60.707 31.77 C-61.697 32.43 -62.687 33.09 -63.707 33.77 C-64.895 32.082 -64.895 32.082 -65.707 29.77 C-64.337 26.384 -63.321 25.069 -60.02 23.457 C-59.638 23.344 -59.638 23.344 -57.707 22.77 C-57.666 21.821 -57.625 20.872 -57.582 19.895 C-56.392 11.84 -50.946 5.2 -44.766 0.234 C-31.793 -8.997 -12.767 -10.519 0 0 Z M-44.727 7.699 C-48.103 11.344 -50.018 13.745 -50.707 18.77 C-44.252 16.213 -37.844 13.57 -31.469 10.82 C-23.231 7.686 -14.258 8.215 -5.707 9.77 C-3.034 9.853 -0.383 9.816 2.293 9.77 C-1.179 3.983 -6.507 1.769 -12.707 -0.23 C-24.965 -2.484 -35.536 -1.082 -44.727 7.699 Z M16.293 11.77 C16.623 13.42 16.953 15.07 17.293 16.77 C17.953 15.45 18.613 14.13 19.293 12.77 C18.303 12.44 17.313 12.11 16.293 11.77 Z M-11.707 12.77 C-11.377 12.935 -11.377 12.935 -9.707 13.77 C-9.377 14.43 -9.047 15.09 -8.707 15.77 C-8.377 14.78 -8.047 13.79 -7.707 12.77 C-9.027 12.77 -10.347 12.77 -11.707 12.77 Z M-12.707 13.77 C-11.707 15.77 -11.707 15.77 -11.707 15.77 Z M-10.707 15.77 C-9.707 17.77 -9.707 17.77 -9.707 17.77 Z " fill="#3F3B32" transform="translate(215.70703125,27.23046875)"/>
<path d="M0 0 C1.238 0.392 2.475 0.784 3.75 1.188 C4.493 1.456 5.235 1.724 6 2 C6 2.66 6 3.32 6 4 C5.299 4.026 4.597 4.052 3.875 4.078 C-2.744 4.474 -7.324 5.531 -13 9 C-14.555 12.11 -14.286 14.563 -14 18 C-10.416 26.193 -1.476 30.136 6.418 33.372 C59.771 53.91 123.854 48.177 175.5 25.376 C180.541 23.094 185.543 20.775 190.43 18.176 C191.278 17.788 192.126 17.4 193 17 C193.66 17.33 194.32 17.66 195 18 C161.605 50.348 113.533 67.556 67.5 67.312 C67.131 67.311 67.131 67.311 65.261 67.306 C28.902 67.137 -15.811 59.887 -43.344 33.777 C-48.043 28.814 -51.794 23.961 -52.086 16.934 C-51.68 11.311 -49.588 7.482 -45.566 3.625 C-33.256 -6.294 -14.094 -4.564 0 0 Z " fill="#322F26" transform="translate(159,184)"/>
<path d="M0 0 C4.93 0.446 7.069 1.541 10.5 5.062 C14.515 8.864 18.547 11.819 23.312 14.562 C23.899 14.909 24.486 15.255 25.09 15.612 C28.53 17.531 31.059 18.407 35 18 C34.835 17.67 34.835 17.67 34 16 C37.407 16.31 39.56 16.688 42.375 18.688 C44.491 21.698 44.537 23.392 44 27 C42.938 28.875 42.938 28.875 41 30 C39.943 29.994 38.886 29.987 37.797 29.98 C34.034 30 30.958 30.553 27.312 31.438 C22.659 32.508 18.268 33.2 13.5 33.438 C8.565 33.752 5.945 34.9 2 38 C-1.704 39.482 -3.969 40 -8 40 C-10.32 64.155 -5.006 83.647 9.938 103.25 C21.252 118.505 26.642 135.015 25 154 C23.74 161.861 20.479 168.89 17 176 C14.03 176 11.06 176 8 176 C8.277 175.309 8.554 174.618 8.84 173.906 C10.09 170.774 11.334 167.64 12.562 164.5 C12.997 163.397 13.431 162.293 13.879 161.156 C18.934 146.924 16.119 131.041 10.527 117.41 C7.521 111.091 3.988 105.336 0.062 99.562 C-8.633 86.764 -14.554 73.625 -19.969 59.161 C-23.634 49.476 -28.039 40.483 -34 32 C-33.134 32.33 -32.268 32.66 -31.375 33 C-24.349 34.993 -15.411 35.422 -8.625 32.5 C-7.759 32.005 -6.892 31.51 -6 31 C-8.014 27.979 -9.633 26.393 -13 25 C-11.805 22.176 -10.463 20.372 -8.438 18 C-6.239 15.294 -5.58 14.248 -5 11 C-4.34 10.34 -3.68 9.68 -3 9 C-2.402 7.479 -1.865 5.934 -1.375 4.375 C-1.115 3.558 -0.854 2.74 -0.586 1.898 C-0.393 1.272 -0.199 0.645 0 0 Z " fill="#3F3B33" transform="translate(214,43)"/>
<path d="M0 0 C5.825 0.221 11.529 0.117 17.312 -0.625 C21.748 -1.148 24.827 -0.542 29 1 C30.579 6.951 29.116 12.028 28 18 C31.96 19.98 35.92 21.96 40 24 C39.67 24.66 39.34 25.32 39 26 C28.253 25.756 19.557 18.124 12.352 10.82 C9.555 8.656 7.481 8.311 4 8 C3.841 8.592 3.683 9.183 3.52 9.793 C1.979 15.012 0.634 18.776 -4 22 C-8.618 23.389 -12.177 23.229 -16.812 21.938 C-20.549 19.667 -22.05 17.901 -24 14 C-24.75 10.125 -24.75 10.125 -25 7 C-23.68 6.67 -22.36 6.34 -21 6 C-21 5.01 -21 4.02 -21 3 C-22.32 2.67 -23.64 2.34 -25 2 C-16.95 -2.391 -8.801 -1.467 0 0 Z M22 3 C22.33 4.65 22.66 6.3 23 8 C23.66 6.68 24.32 5.36 25 4 C24.01 3.67 23.02 3.34 22 3 Z M-6 4 C-5.67 4.165 -5.67 4.165 -4 5 C-3.67 5.66 -3.34 6.32 -3 7 C-2.67 6.01 -2.34 5.02 -2 4 C-3.32 4 -4.64 4 -6 4 Z M-7 5 C-6 7 -6 7 -6 7 Z M-5 7 C-4 9 -4 9 -4 9 Z " fill="#36322A" transform="translate(210,36)"/>
<path d="M0 0 C2.447 2.189 4.826 4.418 7.152 6.734 C6.822 7.724 6.492 8.714 6.152 9.734 C3.037 9.378 1.373 8.913 -1.098 6.922 C-9.123 0.538 -18.3 -0.913 -28.398 -0.047 C-36.565 1.42 -42.438 5.758 -47.719 11.988 C-48.954 13.898 -49.348 15.533 -49.848 17.734 C-49.232 17.457 -48.617 17.179 -47.983 16.892 C-45.193 15.64 -42.396 14.406 -39.598 13.172 C-39.114 12.953 -39.114 12.953 -36.664 11.846 C-35.729 11.436 -34.795 11.027 -33.832 10.605 C-32.973 10.223 -32.114 9.841 -31.229 9.447 C-28.621 8.666 -27.371 8.812 -24.848 9.734 C-25.838 10.064 -26.828 10.394 -27.848 10.734 C-27.683 11.394 -27.683 11.394 -26.848 14.734 C-28.168 15.064 -29.488 15.394 -30.848 15.734 C-30.848 16.394 -30.848 17.054 -30.848 17.734 C-32.065 18.126 -33.281 18.518 -34.535 18.922 C-40.722 20.978 -46.773 23.369 -52.848 25.734 C-53.508 30.354 -54.168 34.974 -54.848 39.734 C-55.178 39.734 -55.508 39.734 -55.848 39.734 C-55.889 39.095 -55.889 39.095 -56.098 35.859 C-56.359 33.648 -56.359 33.648 -56.848 31.734 C-58.91 30.234 -58.91 30.234 -60.848 29.734 C-61.508 31.054 -62.168 32.374 -62.848 33.734 C-63.838 33.074 -64.828 32.414 -65.848 31.734 C-64.381 26.234 -64.381 26.234 -61.848 23.859 C-59.848 22.734 -59.848 22.734 -57.848 22.734 C-57.806 21.786 -57.765 20.837 -57.723 19.859 C-56.532 11.805 -51.087 5.165 -44.906 0.199 C-31.74 -9.169 -13.014 -10.354 0 0 Z " fill="#4B473E" transform="translate(215.84765625,27.265625)"/>
<path d="M0 0 C4.93 0.446 7.069 1.541 10.5 5.062 C14.499 8.843 18.514 11.815 23.25 14.562 C24.39 15.224 25.529 15.885 26.703 16.566 C30.153 18.067 32.299 18.143 36 18 C38.375 19.75 38.375 19.75 40 22 C40 23.32 40 24.64 40 26 C32.41 25.67 32.41 25.67 -6 24 C-6 20 -6 20 -4 18 C-3.875 15.375 -3.875 15.375 -4 13 C-4.66 12.67 -5.32 12.34 -6 12 C-5.54 11.602 -5.08 11.203 -4.605 10.793 C-2.733 8.701 -2.126 6.986 -1.312 4.312 C-1.061 3.504 -0.81 2.696 -0.551 1.863 C-0.369 1.248 -0.187 0.634 0 0 Z M34 16 C34.99 16.165 34.99 16.165 40 17 C40 17.99 40 18.98 40 20 C39.67 19.34 39.34 18.68 39 18 C36.438 17.375 36.438 17.375 34 17 C34 16.67 34 16.34 34 16 Z " fill="#BC5D37" transform="translate(214,43)"/>
<path d="M0 0 C5.75 0.75 5.75 0.75 8 3 C8.548 8.149 8.548 8.149 6.922 10.676 C3.987 12.698 1.449 12.323 -2.062 12.25 C-3.312 12.235 -4.561 12.219 -5.848 12.203 C-9 12 -9 12 -11 11 C-11 11.66 -11 12.32 -11 13 C-16.707 13.993 -22.214 14.105 -28 14 C-28 13.01 -28 12.02 -28 11 C-25.03 11 -22.06 11 -19 11 C-19 10.34 -19 9.68 -19 9 C-25.93 8.67 -32.86 8.34 -40 8 C-40 7.34 -40 6.68 -40 6 C-29.655 5.882 -19.339 6.028 -9 6.438 C-7.944 6.477 -6.887 6.516 -5.799 6.556 C-4.813 6.598 -3.828 6.64 -2.812 6.684 C-2.372 6.702 -2.372 6.702 -0.145 6.795 C2 7 2 7 4 8 C2.875 5.028 1.777 2.666 0 0 Z " fill="#3D2B21" transform="translate(250,61)"/>
<path d="M0 0 C3.044 4.566 2.128 8.567 2 14 C5.96 15.98 9.92 17.96 14 20 C13.67 20.66 13.34 21.32 13 22 C3.945 21.794 -4.405 15.858 -11 10 C-11 9.34 -11 8.68 -11 8 C-10.175 8.33 -10.175 8.33 -6 10 C-5.825 9.681 -5.825 9.681 -4.941 8.066 C-4.486 7.24 -4.031 6.414 -3.562 5.562 C-3.336 5.151 -3.336 5.151 -2.191 3.066 C-1 1 -1 1 0 0 Z " fill="#2A2923" transform="translate(236,40)"/>
<path d="M0 0 C4.794 3.008 8.717 6.349 12 11 C11.67 11.66 11.34 12.32 11 13 C7.884 12.644 6.221 12.178 3.75 10.188 C0.142 7.318 -3.758 5.738 -8 4 C-8 2.68 -8 1.36 -8 0 C-4.482 -1.173 -3.493 -1.164 0 0 Z " fill="#4A453C" transform="translate(211,24)"/>
<path d="M0 0 C2.708 -0.027 5.417 -0.047 8.125 -0.062 C8.886 -0.071 9.646 -0.079 10.43 -0.088 C14.739 -0.106 18.755 0.139 23 1 C23 1.66 23 2.32 23 3 C20.03 3 17.06 3 14 3 C14 3.99 14 4.98 14 6 C16.805 5.835 16.805 5.835 31 5 C31 4.34 31 3.68 31 3 C31.825 3.165 31.825 3.165 36 4 C33.1 5.623 30.754 6.321 27.453 6.633 C27.031 6.675 27.031 6.675 24.895 6.887 C24.022 6.965 23.149 7.044 22.25 7.125 C21.806 7.168 21.806 7.168 19.559 7.387 C17.373 7.598 15.187 7.802 13 8 C13 6.68 13 5.36 13 4 C12.397 4.046 11.793 4.093 11.172 4.141 C10.373 4.177 9.573 4.213 8.75 4.25 C7.961 4.296 7.172 4.343 6.359 4.391 C3.198 3.867 2.044 2.381 0 0 Z " fill="#9F5E3E" transform="translate(208,69)"/>
<path d="M0 0 C0.33 0 0.66 0 1 0 C1 1.65 1 3.3 1 5 C1.619 4.794 2.238 4.587 2.875 4.375 C3.576 4.251 4.278 4.127 5 4 C5.66 4.66 6.32 5.32 7 6 C6.67 6.165 6.67 6.165 5 7 C4.532 9.337 4.173 11.697 3.875 14.062 C3.791 14.708 3.791 14.708 3.367 17.973 C3.246 18.972 3.125 19.971 3 21 C2.67 21 2.34 21 2 21 C1.959 20.361 1.959 20.361 1.75 17.125 C1.488 14.914 1.488 14.914 1 13 C-1.062 11.5 -1.062 11.5 -3 11 C-3.66 12.32 -4.32 13.64 -5 15 C-5.99 14.34 -6.98 13.68 -8 13 C-6.533 7.5 -6.533 7.5 -4 5.125 C-2 4 -2 4 0 4 C0 2.68 0 1.36 0 0 Z " fill="#59554C" transform="translate(158,46)"/>
<path d="M0 0 C9.57 0 19.14 0 29 0 C29 0.66 29 1.32 29 2 C25.626 2.507 22.251 3.004 18.875 3.5 C18.399 3.572 18.399 3.572 15.992 3.934 C11.288 4.62 6.77 5.193 2 5 C3.32 4.34 4.64 3.68 6 3 C4.02 2.34 2.04 1.68 0 1 C0 0.67 0 0.34 0 0 Z " fill="#6E6B63" transform="translate(200,256)"/>
<path d="M0 0 C0.495 0.33 0.495 0.33 3 2 C3.328 3.883 3.328 3.883 3.25 6.125 C3.236 6.523 3.236 6.523 3.168 8.539 C2.487 18.513 2.487 18.513 1 20 C0.769 21.347 0.588 22.704 0.438 24.062 C0.293 25.362 0.149 26.661 0 28 C-0.33 28 -0.66 28 -1 28 C-1.029 23.521 -1.047 19.042 -1.062 14.562 C-1.067 13.923 -1.067 13.923 -1.088 10.686 C-1.09 10.078 -1.09 10.078 -1.098 7.004 C-1.103 5.878 -1.108 4.752 -1.114 3.592 C-1 1 -1 1 0 0 Z " fill="#27241C" transform="translate(157,56)"/>
<path d="M0 0 C0 0.66 0 1.32 0 2 C1.32 1.67 2.64 1.34 4 1 C4 1.66 4 2.32 4 3 C1.609 4.567 -0.772 6.02 -3.25 7.438 C-11.603 12.277 -11.603 12.277 -15 15 C-15.66 14.67 -16.32 14.34 -17 14 C-15.253 12.226 -13.503 10.456 -11.75 8.688 C-11.259 8.188 -10.768 7.688 -10.262 7.174 C-3.135 0 -3.135 0 0 0 Z " fill="#4B463F" transform="translate(37,164)"/>
<path d="M0 0 C1.792 0.114 3.584 0.241 5.375 0.375 C5.874 0.41 5.874 0.41 8.398 0.586 C11 1 11 1 13 3 C12.977 5.602 12.977 5.602 12.625 8.625 C12.57 9.126 12.57 9.126 12.289 11.664 C12.194 12.435 12.098 13.206 12 14 C11.67 14 11.34 14 11 14 C10.876 13.237 10.752 12.474 10.625 11.688 C10 9 10 9 8 6 C7.34 5.67 6.68 5.34 6 5 C6.103 5.392 6.103 5.392 6.625 7.375 C6.749 8.241 6.873 9.108 7 10 C6.34 10.66 5.68 11.32 5 12 C4.34 11.67 3.68 11.34 3 11 C3.035 10.374 3.07 9.747 3.105 9.102 C3.133 8.284 3.16 7.467 3.188 6.625 C3.222 5.813 3.257 5.001 3.293 4.164 C3.196 3.45 3.1 2.736 3 2 C2.01 1.34 1.02 0.68 0 0 Z " fill="#65625B" transform="translate(227,35)"/>
<path d="M0 0 C0.66 0.33 1.32 0.66 2 1 C-3.052 5.72 -7.826 9.847 -14 13 C-14.66 12.34 -15.32 11.68 -16 11 C-15.67 10.34 -15.34 9.68 -15 9 C-15.66 8.67 -16.32 8.34 -17 8 C-14.214 6.633 -11.421 5.284 -8.625 3.938 C-7.831 3.548 -7.037 3.158 -6.219 2.756 C-5.458 2.392 -4.698 2.028 -3.914 1.652 C-3.563 1.482 -3.563 1.482 -1.788 0.621 C-1.198 0.416 -0.608 0.211 0 0 Z " fill="#4A473F" transform="translate(352,201)"/>
<path d="M0 0 C5.75 0.75 5.75 0.75 8 3 C8.33 6.098 8.453 8.173 6.938 10.938 C3.875 12.617 1.306 11.686 -2 11 C-1.01 10.67 -0.02 10.34 1 10 C1 9.34 1 8.68 1 8 C1.99 8 2.98 8 4 8 C2.875 5.028 1.777 2.666 0 0 Z " fill="#484039" transform="translate(250,61)"/>
<path d="M0 0 C0.33 0 0.66 0 1 0 C1.371 5.567 1.371 5.567 -0.5 7.75 C-0.995 8.163 -1.49 8.575 -2 9 C-2 9.66 -2 10.32 -2 11 C-1.34 11.33 -0.68 11.66 0 12 C-0.33 12.66 -0.66 13.32 -1 14 C-1.99 13.67 -2.98 13.34 -4 13 C-6.188 13.438 -6.188 13.438 -8 14 C-8 9.675 -7.866 9.368 -5.125 6.438 C-3.174 4.322 -1.611 2.417 0 0 Z " fill="#524B41" transform="translate(210,55)"/>
<path d="M0 0 C-0.99 0.33 -1.98 0.66 -3 1 C-2.67 2.32 -2.34 3.64 -2 5 C-3.32 5.33 -4.64 5.66 -6 6 C-6 6.66 -6 7.32 -6 8 C-7.65 8 -9.3 8 -11 8 C-10.424 5.614 -9.778 3.333 -9 1 C-5.654 -0.808 -3.596 -1.332 0 0 Z " fill="#59554C" transform="translate(191,37)"/>
<path d="M0 0 C0.773 0.275 1.547 0.549 2.344 0.832 C3.117 1.094 3.891 1.355 4.688 1.625 C6.922 2.681 8.223 3.801 9.844 5.645 C9.514 5.975 9.184 6.305 8.844 6.645 C3.099 6.3 -0.408 4.649 -5.156 1.645 C-2.156 -0.355 -2.156 -0.355 0 0 Z " fill="#463B31" transform="translate(240.15625,55.35546875)"/>
<path d="M0 0 C0.33 0 0.66 0 1 0 C1 1.65 1 3.3 1 5 C1.619 4.794 2.238 4.587 2.875 4.375 C3.576 4.251 4.278 4.127 5 4 C5.66 4.66 6.32 5.32 7 6 C6.67 6.165 6.67 6.165 5 7 C4.532 9.337 4.173 11.697 3.875 14.062 C3.791 14.708 3.791 14.708 3.367 17.973 C3.246 18.972 3.125 19.971 3 21 C2.67 21 2.34 21 2 21 C1.805 19.014 1.609 17.029 1.414 15.043 C1 13 1 13 -1 10 C-0.67 9.34 -0.34 8.68 0 8 C0 7.34 0 6.68 0 6 C-0.66 5.34 -1.32 4.68 -2 4 C-1.34 4 -0.68 4 0 4 C0 2.68 0 1.36 0 0 Z " fill="#858076" transform="translate(158,46)"/>
<path d="M0 0 C0 0.99 0 1.98 0 3 C0.66 3 1.32 3 2 3 C2 3.66 2 4.32 2 5 C-1.735 5.575 -5.213 6 -9 6 C-6.974 1.324 -5.297 0 0 0 Z " fill="#565249" transform="translate(168,45)"/>
<path d="M0 0 C2.97 0 5.94 0 9 0 C9 0.66 9 1.32 9 2 C8.01 2 7.02 2 6 2 C6 2.66 6 3.32 6 4 C6.99 4.33 7.98 4.66 9 5 C6.03 5 3.06 5 0 5 C0 4.34 0 3.68 0 3 C-2.31 3 -4.62 3 -7 3 C-7 2.67 -7 2.34 -7 2 C-5.845 1.835 -5.845 1.835 0 1 C0 0.67 0 0.34 0 0 Z " fill="#39342C" transform="translate(197,22)"/>
<path d="M0 0 C0.66 0 1.32 0 2 0 C2.66 1.65 3.32 3.3 4 5 C2.35 5.33 0.7 5.66 -1 6 C-1.144 6.619 -1.289 7.237 -1.438 7.875 C-2 10 -2 10 -3 12 C-3.66 11.67 -4.32 11.34 -5 11 C-5 6.734 -4.432 5.367 -2 2 C-1.34 2 -0.68 2 0 2 C0 1.34 0 0.68 0 0 Z M1 2 C2 4 2 4 2 4 Z " fill="#67645F" transform="translate(204,41)"/>
<path d="M0 0 C2.271 -0.054 4.542 -0.093 6.812 -0.125 C8.077 -0.148 9.342 -0.171 10.645 -0.195 C14 0 14 0 17 2 C11.293 2.993 5.786 3.105 0 3 C0 2.01 0 1.02 0 0 Z " fill="#26211A" transform="translate(222,72)"/>
<path d="M0 0 C0.33 0.99 0.66 1.98 1 3 C1.99 3.33 2.98 3.66 4 4 C2.104 4.027 0.208 4.046 -1.688 4.062 C-2.215 4.068 -2.215 4.068 -4.887 4.098 C-7.724 4.009 -10.244 3.649 -13 3 C-13 2.34 -13 1.68 -13 1 C-10.855 0.835 -10.855 0.835 0 0 Z " fill="#47362A" transform="translate(244,69)"/>
<path d="M0 0 C-0.33 0.99 -0.66 1.98 -1 3 C-2.98 3.33 -4.96 3.66 -7 4 C-7.33 3.34 -7.66 2.68 -8 2 C-12.29 2 -16.58 2 -21 2 C-21 1.67 -21 1.34 -21 1 C-13.973 0.334 -7.06 -0.118 0 0 Z " fill="#28241D" transform="translate(252,68)"/>
<path d="M0 0 C0.99 0.33 1.98 0.66 3 1 C2.67 1.99 2.34 2.98 2 4 C2.66 4.33 3.32 4.66 4 5 C0.629 6.498 -1.204 7 -5 7 C-4.619 4.237 -4.164 3.159 -2.125 1.188 C-1.424 0.796 -0.722 0.404 0 0 Z " fill="#47433A" transform="translate(42,159)"/>
<path d="M0 0 C-0.66 1.65 -1.32 3.3 -2 5 C-4.31 5.33 -6.62 5.66 -9 6 C-8.625 3.562 -8.625 3.562 -8 1 C-5.291 -0.354 -2.991 -0.065 0 0 Z " fill="#3B3830" transform="translate(184,23)"/>
<path d="M0 0 C0.66 0.33 1.32 0.66 2 1 C1.505 1.495 1.505 1.495 -1 4 C-0.67 4.66 -0.34 5.32 0 6 C-1.485 6.99 -1.485 6.99 -9 12 C-9.66 11.67 -10.32 11.34 -11 11 C-7.37 7.37 -3.74 3.74 0 0 Z " fill="#6D6A62" transform="translate(31,167)"/>
<path d="M0 0 C3.63 0.33 7.26 0.66 11 1 C11 1.33 11 1.66 11 2 C9.35 2 7.7 2 6 2 C6.206 3.279 6.412 4.557 6.625 5.875 C6.977 8.055 6.977 8.055 7 10 C6.34 10.66 5.68 11.32 5 12 C4.34 11.67 3.68 11.34 3 11 C3.035 10.374 3.07 9.747 3.105 9.102 C3.133 8.284 3.16 7.467 3.188 6.625 C3.222 5.813 3.257 5.001 3.293 4.164 C3.196 3.45 3.1 2.736 3 2 C2.01 1.34 1.02 0.68 0 0 Z " fill="#87847B" transform="translate(227,35)"/>
<path d="M0 0 C1.65 0 3.3 0 5 0 C4.812 2.375 4.812 2.375 4 5 C1.438 6.312 1.438 6.312 -1 7 C-0.67 4.69 -0.34 2.38 0 0 Z " fill="#37342C" transform="translate(160,41)"/>
<path d="M0 0 C1.485 0.33 1.485 0.33 9 2 C9 2.66 9 3.32 9 4 C5.7 4 2.4 4 -1 4 C-0.67 2.68 -0.34 1.36 0 0 Z " fill="#78746C" transform="translate(156,184)"/>
<path d="M0 0 C3 0 3 0 6 1 C5.691 1.598 5.381 2.196 5.062 2.812 C4 5 4 5 3 8 C0 3.375 0 3.375 0 0 Z " fill="#4A463E" transform="translate(216,142)"/>
<path d="M0 0 C-0.66 2.31 -1.32 4.62 -2 7 C-3.32 7.33 -4.64 7.66 -6 8 C-5.917 7.701 -5.917 7.701 -5.5 6.188 C-5 4 -5 4 -5 1 C-2 0 -2 0 0 0 Z " fill="#4C473E" transform="translate(182,39)"/>
<path d="M0 0 C0.66 0.33 1.32 0.66 2 1 C0.845 1.99 0.845 1.99 -5 7 C-5.33 6.34 -5.66 5.68 -6 5 C-6.66 4.67 -7.32 4.34 -8 4 C-6.713 3.303 -5.421 2.618 -4.125 1.938 C-3.406 1.555 -2.686 1.172 -1.945 0.777 C-1.303 0.521 -0.661 0.264 0 0 Z " fill="#6A6861" transform="translate(352,201)"/>
<path d="M0 0 C4.273 0.475 6.103 3.031 9 6 C11.312 7.312 11.312 7.312 13 8 C8.865 8.333 6.934 7.68 3.688 5.125 C2.99 4.591 2.293 4.058 1.574 3.508 C1.055 3.01 0.535 2.513 0 2 C0 1.34 0 0.68 0 0 Z " fill="#2C2117" transform="translate(225,48)"/>
<path d="M0 0 C3.092 2.53 3.909 5.225 5 9 C4.34 9 3.68 9 3 9 C0.812 6.75 0.812 6.75 -1 4 C-0.75 1.688 -0.75 1.688 0 0 Z " fill="#6C6861" transform="translate(197,183)"/>
<path d="M0 0 C1.32 0 2.64 0 4 0 C4 4.29 4 8.58 4 13 C3.67 13 3.34 13 3 13 C2.805 11.014 2.609 9.029 2.414 7.043 C2 5 2 5 0 2 C0 1.34 0 0.68 0 0 Z " fill="#68635B" transform="translate(157,54)"/>
<path d="M0 0 C1.525 0.089 3.047 0.245 4.562 0.438 C5.389 0.539 6.215 0.641 7.066 0.746 C7.385 0.788 7.385 0.788 9 1 C9 1.33 9 1.66 9 2 C4.38 2.33 -0.24 2.66 -5 3 C-3.68 2.34 -2.36 1.68 -1 1 C-0.67 0.67 -0.34 0.34 0 0 Z " fill="#706A62" transform="translate(207,258)"/>
<path d="M0 0 C0.33 0 0.66 0 1 0 C1.188 2.875 1.188 2.875 1 6 C0.01 6.66 -0.98 7.32 -2 8 C-2.66 7.34 -3.32 6.68 -4 6 C-2.696 3.981 -1.362 1.981 0 0 Z " fill="#423D35" transform="translate(210,55)"/>
<path d="M0 0 C0.66 0.99 1.32 1.98 2 3 C1.125 5.688 1.125 5.688 0 8 C-0.66 7.67 -1.32 7.34 -2 7 C-2 3 -2 3 0 0 Z " fill="#7D7B74" transform="translate(201,45)"/>
<path d="M0 0 C1.32 0.66 2.64 1.32 4 2 C3.67 2.99 3.34 3.98 3 5 C1.35 4.67 -0.3 4.34 -2 4 C-2 3.34 -2 2.68 -2 2 C-1.34 2 -0.68 2 0 2 C0 1.34 0 0.68 0 0 Z " fill="#67635A" transform="translate(219,32)"/>
<path d="M0 0 C-3.427 1.142 -5.611 0.909 -9.188 0.562 C-9.731 0.512 -9.731 0.512 -12.48 0.254 C-12.896 0.212 -12.896 0.212 -15 0 C-15 -0.33 -15 -0.66 -15 -1 C-13.252 -1.223 -11.501 -1.428 -9.75 -1.625 C-8.775 -1.741 -7.801 -1.857 -6.797 -1.977 C-3.866 -2.001 -2.455 -1.531 0 0 Z " fill="#ABA49A" transform="translate(146,174)"/>
<path d="M0 0 C2.375 0.25 2.375 0.25 5 1 C6.312 3.062 6.312 3.062 7 5 C4.062 4.188 4.062 4.188 1 3 C0.67 2.01 0.34 1.02 0 0 Z " fill="#3C251B" transform="translate(221,54)"/>
<path d="M0 0 C0.99 0.165 0.99 0.165 6 1 C4.75 2.562 4.75 2.562 3 4 C0.812 3.688 0.812 3.688 -1 3 C-0.67 2.01 -0.34 1.02 0 0 Z " fill="#312E26" transform="translate(154,51)"/>
<path d="M0 0 C0 1.32 0 2.64 0 4 C-2.64 3.34 -5.28 2.68 -8 2 C-8 1.67 -8 1.34 -8 1 C-2.25 -1.125 -2.25 -1.125 0 0 Z " fill="#C16641" transform="translate(254,65)"/>
<path d="M0 0 C0.99 0.165 0.99 0.165 6 1 C6 2.32 6 3.64 6 5 C2.839 3.63 2.007 3.011 0 0 Z " fill="#342D27" transform="translate(250,61)"/>
<path d="M0 0 C1.98 0 3.96 0 6 0 C5.34 1.32 4.68 2.64 4 4 C2.68 3.67 1.36 3.34 0 3 C0 2.01 0 1.02 0 0 Z " fill="#4A4741" transform="translate(233,37)"/>
<path d="M0 0 C0.33 0 0.66 0 1 0 C1.125 2.875 1.125 2.875 1 6 C0.34 6.66 -0.32 7.32 -1 8 C-1.625 5.125 -1.625 5.125 -2 2 C-1.34 1.34 -0.68 0.68 0 0 Z " fill="#53504A" transform="translate(257,64)"/>
<path d="" fill="#DEDDD9" transform="translate(0,0)"/>
</svg>
