<svg xmlns="http://www.w3.org/2000/svg" viewBox="40 80 230 160" fill="currentColor">
<path d="M0 0 C2.438 2.125 2.438 2.125 4 5 C4.081 8.971 3.469 10.478 0.812 13.438 C-2 15 -2 15 -5.188 14.875 C-8 14 -8 14 -10 12 C-10.674 5.037 -10.674 5.037 -8.375 1.5 C-5.257 -0.469 -3.623 -0.679 0 0 Z " fill="currentColor" transform="translate(124,120)"/>
<path d="M0 0 C4.639 -0.306 7.112 -0.233 10.965 2.496 C14.385 7.62 14.962 14.419 15.965 20.371 C16.701 20.494 17.437 20.616 18.195 20.742 C20.858 21.347 22.872 22.17 25.277 23.434 C25.975 23.796 26.672 24.158 27.391 24.531 C27.91 24.808 28.43 25.086 28.965 25.371 C28.635 26.691 28.305 28.011 27.965 29.371 C21.78 28.921 16.236 27.81 10.965 24.371 C8.902 21.121 8.902 21.121 7.965 18.371 C7.305 18.371 6.645 18.371 5.965 18.371 C4.457 20.34 4.457 20.34 2.84 22.871 C2.301 23.706 1.762 24.542 1.207 25.402 C0.797 26.052 0.387 26.702 -0.035 27.371 C0.713 27.655 1.46 27.938 2.23 28.23 C5.933 29.775 9.063 31.578 11.965 34.371 C14.04 39.62 12.236 45.057 10.965 50.371 C11.555 50.191 11.555 50.191 14.543 49.277 C16.1 48.808 17.657 48.34 19.215 47.871 C19.992 47.633 20.769 47.394 21.57 47.148 C22.324 46.923 23.079 46.697 23.855 46.465 C24.547 46.255 25.238 46.046 25.95 45.83 C27.965 45.371 27.965 45.371 31.965 45.371 C27.648 55.435 16.532 62.721 6.965 67.371 C3.574 68.086 3.574 68.086 0.965 68.371 C0.965 69.031 0.965 69.691 0.965 70.371 C1.79 70.206 1.79 70.206 5.965 69.371 C5.965 70.031 5.965 70.691 5.965 71.371 C-1.263 77.516 -8.958 78.63 -18.16 78.246 C-24.946 77.695 -31.041 76.127 -37.559 74.227 C-42.128 73.102 -46.366 72.976 -51.035 73.371 C-51.035 72.051 -51.035 70.731 -51.035 69.371 C-46.871 65.755 -42.482 64.415 -37.207 62.984 C-35.035 62.371 -35.035 62.371 -33.035 61.371 C-31.036 61.331 -29.035 61.328 -27.035 61.371 C-26.985 60.662 -26.935 59.953 -26.883 59.223 C-25.926 56.003 -24.424 54.563 -22.036 52.275 C-17.831 48.164 -14.747 44.73 -14.555 38.648 C-14.621 36.157 -14.785 33.686 -14.96 31.2 C-15.328 24.757 -14.172 21.323 -9.859 16.328 C-9.257 15.682 -8.655 15.036 -8.035 14.371 C-7.197 13.18 -6.38 11.974 -5.598 10.746 C-5.082 9.962 -4.566 9.179 -4.035 8.371 C-11.14 9.029 -14.612 11.273 -19.211 16.691 C-21.035 18.371 -21.035 18.371 -25.035 18.371 C-24.234 11.696 -20.071 7.533 -15.035 3.371 C-10.14 1.139 -5.288 0.647 0 0 Z M-6.035 34.371 C-6.038 34.928 -6.04 35.485 -6.043 36.059 C-6.488 44.849 -11.04 49.376 -17.035 55.371 C-17.035 56.031 -17.035 56.691 -17.035 57.371 C-10.327 56.193 -3.673 54.895 2.965 53.371 C3.955 48.751 4.945 44.131 5.965 39.371 C4.542 38.546 3.119 37.721 1.652 36.871 C0.852 36.407 0.051 35.943 -0.773 35.465 C-3.035 34.371 -3.035 34.371 -6.035 34.371 Z " fill="currentColor" transform="translate(105.03515625,133.62890625)"/>
<path d="M0 0 C2.324 2.016 2.324 2.016 4 4 C4 4.66 4 5.32 4 6 C3.371 5.893 2.742 5.786 2.094 5.676 C-3.948 4.83 -8.686 4.745 -14 8 C-19.096 12.874 -20.683 17.517 -21.312 24.438 C-20.751 30.839 -18.665 36.458 -14 41 C-7.569 45.584 -0.651 47.408 7 49 C7 49.66 7 50.32 7 51 C-15.929 51.968 -15.929 51.968 -24.938 43.812 C-29.988 38.119 -32.694 31.862 -32.332 24.207 C-31.593 19.294 -29.758 15.137 -27 11 C-32.721 15.173 -36.89 20.23 -41.062 25.875 C-41.583 26.579 -42.104 27.284 -42.641 28.009 C-44.784 30.927 -46.901 33.858 -48.973 36.828 C-54.881 45.041 -63.18 49.711 -73 52 C-73.99 52 -74.98 52 -76 52 C-74.496 48.176 -72.331 46.535 -69.062 44.125 C-62.007 38.542 -55.057 31.115 -51 23 C-51.66 23 -52.32 23 -53 23 C-52.133 18.479 -49.521 15.882 -46.438 12.625 C-45.894 12.046 -45.35 11.466 -44.79 10.87 C-32.318 -2.202 -17.232 -8.792 0 0 Z " fill="currentColor" transform="translate(192,156)"/>
<path d="M0 0 C0.66 0 1.32 0 2 0 C2.098 0.664 2.196 1.328 2.297 2.012 C3.218 7.451 4.126 10.868 8 15 C8 15.66 8 16.32 8 17 C4.578 15.534 2.235 14.006 0 11 C-1.742 3.484 -1.742 3.484 0 0 Z " fill="currentColor" transform="translate(153,188)"/>
</svg>