<svg xmlns="http://www.w3.org/2000/svg" viewBox="60 80 200 160" fill="currentColor">
<path d="M0 0 C8.254 5.749 12.768 13.22 15 23 C16.159 31.613 14.175 39.671 9.023 46.695 C7.097 48.931 5.219 51.054 3 53 C2.34 53 1.68 53 1 53 C1.046 52.117 1.093 51.234 1.141 50.324 C1.483 38.952 -0.725 29.002 -8 20 C-16.293 11.492 -23.344 8.603 -35 7 C-32.644 1.572 -28.42 -0.871 -23.188 -3.312 C-14.739 -5.135 -7.585 -4.214 0 0 Z " fill="currentColor" transform="translate(215,90)"/>
<path d="M0 0 C3.375 1.125 3.375 1.125 5.375 3.312 C6.612 6.793 6.517 8.622 5.375 12.125 C3.105 14.647 1.738 15.072 -1.625 15.562 C-4.625 15.125 -4.625 15.125 -7 13.5 C-9.138 10.375 -9.308 8.843 -8.625 5.125 C-5.934 1.292 -4.739 0.163 0 0 Z " fill="currentColor" transform="translate(98.625,146.875)"/>
<path d="M0 0 C0.332 0.182 0.332 0.182 2.012 1.102 C5.896 3.152 8.565 3.416 13.012 3.039 C13.963 2.96 14.914 2.882 15.895 2.801 C18.603 2.569 21.307 2.313 24.012 2.039 C24.342 1.049 24.672 0.059 25.012 -0.961 C26.332 -0.961 27.652 -0.961 29.012 -0.961 C28.867 -0.703 28.867 -0.703 28.137 0.602 C26.724 3.663 25.887 6.789 25.012 10.039 C27.982 9.379 30.952 8.719 34.012 8.039 C34.012 8.699 34.012 9.359 34.012 10.039 C33.022 10.039 32.032 10.039 31.012 10.039 C30.795 10.622 30.579 11.204 30.355 11.805 C28.566 14.78 26.454 15.977 23.512 17.789 C22.532 18.403 21.552 19.016 20.543 19.648 C18.012 21.039 18.012 21.039 16.012 21.039 C16.012 21.699 16.012 22.359 16.012 23.039 C16.61 23.111 16.61 23.111 19.637 23.477 C27.598 25.198 34.956 30.758 41.199 35.809 C45.964 39.044 54.546 36.748 60.012 36.039 C60.342 37.029 60.672 38.019 61.012 39.039 C58.206 40.083 55.395 41.099 52.574 42.102 C51.791 42.396 51.008 42.691 50.201 42.994 C44.406 45.021 40.014 45.154 34.012 44.039 C32.658 43.847 31.304 43.659 29.949 43.477 C28.98 43.332 28.01 43.188 27.012 43.039 C27.342 41.719 27.672 40.399 28.012 39.039 C27.29 38.771 26.568 38.503 25.824 38.227 C23.012 37.039 23.012 37.039 20.734 35.496 C17.512 33.772 15.271 33.643 11.637 33.539 C4.24 33.081 -0.253 32.16 -5.488 26.602 C-16.233 13.396 -16.233 13.396 -16.676 6.039 C-15.862 2.489 -14.892 1.196 -11.988 -0.961 C-7.738 -2.378 -4.075 -1.969 0 0 Z M15.074 9.602 C9.574 11.518 4.68 10.919 -0.988 10.039 C-0.988 10.699 -0.988 11.359 -0.988 12.039 C0.29 12.245 1.569 12.452 2.887 12.664 C5.113 13.199 5.113 13.199 7.012 14.039 C8.262 17.102 8.262 17.102 9.012 20.039 C10.762 20.938 10.762 20.938 13.012 21.039 C15.371 19.605 15.371 19.605 17.762 17.602 C18.161 17.272 18.161 17.272 20.184 15.605 C20.787 15.089 21.39 14.572 22.012 14.039 C21.682 12.059 21.352 10.079 21.012 8.039 C18.657 8.039 17.256 8.722 15.074 9.602 Z " fill="currentColor" transform="translate(107.98828125,165.9609375)"/>
<path d="M0 0 C0 0.99 0 1.98 0 3 C-1.438 2.69 -2.875 2.377 -4.312 2.062 C-5.113 1.888 -5.914 1.714 -6.738 1.535 C-9 1 -9 1 -12 0 C-21.069 -0.764 -28.685 0.531 -37.355 3.109 C-42.615 4.395 -47.626 4.36 -53 4 C-53 3.34 -53 2.68 -53 2 C-52.068 1.83 -51.136 1.66 -50.176 1.484 C-43.702 0.254 -37.507 -1.072 -31.25 -3.188 C-20.1 -6.714 -10.45 -5.225 0 0 Z " fill="currentColor" transform="translate(207,213)"/>
<path d="M0 0 C0.547 0.072 0.547 0.072 3.312 0.438 C6.788 0.865 10.266 1.265 13.75 1.625 C14.201 1.673 14.201 1.673 16.484 1.914 C18.955 1.998 20.629 1.606 23 1 C25.165 0.907 27.333 0.87 29.5 0.875 C30.624 0.872 31.748 0.87 32.906 0.867 C35.472 0.977 37.563 1.247 40 2 C40 2.66 40 3.32 40 4 C10.457 8.348 10.457 8.348 0 2 C0 1.34 0 0.68 0 0 Z " fill="currentColor" transform="translate(103,210)"/>
<path d="M138 158 C155 135 170 115 195 91" fill="none" stroke="currentColor" stroke-width="3" stroke-linecap="round"/>
<path d="M162 158 C174 150 188 142 205 134" fill="none" stroke="currentColor" stroke-width="3" stroke-linecap="round"/>
</svg>