<svg xmlns="http://www.w3.org/2000/svg" viewBox="60 80 200 160" fill="currentColor">
<path d="M0 0 C10.511 2.867 16.916 15.142 22 24 C30.73 40.318 41 60.088 41 79 C34.85 78.384 29.382 76.593 23.562 74.562 C17.415 72.434 11.339 70.475 5 69 C3.467 52.26 1.971 35.521 0.812 18.75 C0.729 17.551 0.645 16.352 0.559 15.116 C0.22 10.063 -0.04 5.066 0 0 Z " fill="currentColor" transform="translate(164,86)"/>
<path d="M0 0 C2 2.125 2 2.125 3 5 C2.188 8.312 2.188 8.312 1 11 C-5.374 12.323 -5.374 12.323 -7.938 11 C-9.579 7.911 -9.373 5.424 -9 2 C-5.526 -0.316 -4.086 -0.596 0 0 Z " fill="currentColor" transform="translate(149,139)"/>
<path d="M0 0 C4.299 0.496 5.436 2.191 8.25 5.375 C10.25 7.25 10.25 7.25 12.25 8.375 C16.394 8.157 19.619 6.269 23.25 4.375 C27.079 3.099 28.58 3.891 32.387 5.141 C33.604 5.536 34.822 5.932 36.076 6.34 C37.363 6.768 38.65 7.197 39.938 7.625 C41.192 8.034 42.447 8.442 43.74 8.863 C49.965 10.902 56.142 13.009 62.25 15.375 C62.415 16.695 62.415 16.695 63.25 23.375 C56.221 27.019 49.087 30.216 41.75 33.188 C40.763 33.594 39.775 34.001 38.758 34.42 C31.507 37.375 31.507 37.375 29.25 37.375 C29.25 38.695 29.25 40.015 29.25 41.375 C41.978 38.471 54.563 35.272 67.072 31.523 C68.081 31.229 69.09 30.936 70.129 30.633 C71.022 30.366 71.914 30.099 72.834 29.825 C75.367 29.353 76.838 29.544 79.25 30.375 C79.119 35.632 77.134 38.547 73.695 42.273 C69.275 46.073 61.215 52.375 55.25 52.375 C55.25 53.035 55.25 53.695 55.25 54.375 C61.438 54.009 67.279 53.197 73.312 51.75 C80.377 50.151 86.368 50.081 93.25 52.375 C93.25 53.035 93.25 53.695 93.25 54.375 C92.367 54.34 91.484 54.305 90.574 54.27 C84.697 54.137 79.344 54.089 73.688 55.812 C63.375 58.935 54.948 58.565 44.702 55.865 C34.55 53.282 25.213 53.555 15.195 56.695 C6.358 58.735 -2.905 58.061 -11.395 55.047 C-18.783 52.939 -27.239 54.463 -34.75 55.375 C-34.75 54.715 -34.75 54.055 -34.75 53.375 C-33.979 53.193 -33.208 53.011 -32.414 52.824 C-31.411 52.573 -30.408 52.321 -29.375 52.062 C-28.377 51.819 -27.38 51.575 -26.352 51.324 C-23.75 50.375 -23.75 50.375 -21.75 47.375 C-18.672 47.23 -15.756 47.245 -12.688 47.375 C-3.037 47.607 5.843 46.422 15.25 44.375 C14.74 39.993 14.028 36.852 11.25 33.375 C8.881 31.995 6.677 30.844 4.188 29.75 C-2.502 26.747 -2.502 26.747 -4.75 23.375 C-6.172 16.405 -7.297 7.843 -3.75 1.375 C-2.75 0.375 -2.75 0.375 0 0 Z M20.062 11.875 C16.008 13.72 12.661 13.607 8.25 13.375 C7.671 16.529 7.504 19.238 8.25 22.375 C10.043 24.039 10.043 24.039 12.375 25.562 C18.896 29.889 20.739 36.275 23.25 43.375 C23.91 43.21 23.91 43.21 27.25 42.375 C26.92 31.815 26.59 21.255 26.25 10.375 C23.25 10.375 23.25 10.375 20.062 11.875 Z M5.25 11.375 C5.25 12.035 5.25 12.695 5.25 13.375 C5.91 13.375 6.57 13.375 7.25 13.375 C7.25 12.715 7.25 12.055 7.25 11.375 C6.59 11.375 5.93 11.375 5.25 11.375 Z " fill="currentColor" transform="translate(143.75,153.625)"/>
</svg>